# xmcd CD database file
# Copyright (C) 1993-1996 Ti Kan
#
# Track frame offsets:
#  150
#  29764
#  48333
#  67738
#  84434
#  110532
#  126985
#  145263
#  162395
#  180063
#  201646
#
# Disc length: 2972 seconds
#
# Revision: 1
# Processed by: cddbd v1.5.2PL0 Copyright (c) Steve Scherf et al.
# Submitted via: Advanced CD Ripper Pro 2.0
#
DISCID=980b9a0b
DTITLE=ANKARALI NAMIK - AH BABAM SAÐ OLSAYDI
DYEAR=2007
DGENRE=OTHER
TTITLE0=AH BABAM SAÐ OLSAYDI
TTITLE1=ÇINGIRAKLI YILAN
TTITLE2=AH ANAM
TTITLE3=SEN ÞEHÝRLÝ BEN KÖYLÜ
TTITLE4=MALATYALI
TTITLE5=VAR GÝT ÖLÜM
TTITLE6=ÞU KIÞLANIN KAPISI
TTITLE7=USANDIM
TTITLE8=YOLLAR UZAK
TTITLE9=SÜRMELÝ GELÝN
TTITLE10=NÝYE MÝ
EXTD=
EXTT0=
EXTT1=
EXTT2=
EXTT3=
EXTT4=
EXTT5=
EXTT6=
EXTT7=
EXTT8=
EXTT9=
EXTT10=
PLAYORDER=
